#!OML:ASF F:\VICON\USERDATA\INSTALL\rory3\rory3.ASF
:FULLY-SPECIFIED
:DEGREES
919
root -1.77682 19.3459 9.1933 13.2903 -10.5389 1.13888
lowerback -3.22499 -0.320354 1.96869
upperback -5.93642 -0.44856 0.146203
thorax -4.33138 -0.313898 -0.947298
lowerneck -10.7936 -3.54488 -7.71483
upperneck 25.1073 -4.1768 2.88335
head 9.98376 -2.36885 1.82052
rclavicle 2.56382e-014 6.36111e-015
rhumerus -52.8737 10.65 -86.0019
rradius 46.6742
rwrist 7.93426
rhand -24.8412 -52.1016
rfingers 7.12502
rthumb 1.6649 -82.0748
lclavicle 2.56382e-014 6.36111e-015
lhumerus -47.0063 -11.6517 82.9712
lradius 55.2587
lwrist 0.551199
lhand -35.7993 -42.693
lfingers 7.12502
lthumb -8.91618 -12.9013
rfemur -36.8551 6.78481 13.9831
rtibia 49.6241
rfoot 1.33509 -5.98245
rtoes -11.5306
lfemur -31.1879 1.89291 -8.63457
ltibia 45.8812
lfoot 6.64308 4.01061
ltoes -14.7324
920
root -1.72376 19.2589 9.18708 13.2858 -10.271 1.05719
lowerback -3.49415 -0.462618 1.95299
upperback -5.70164 -0.642805 0.280731
thorax -3.93756 -0.401742 -0.802798
lowerneck -11.0646 -3.57388 -7.53203
upperneck 24.8647 -4.14838 2.57724
head 9.93641 -2.36587 1.68072
rclavicle 1.40454e-014 1.03368e-014
rhumerus -52.4335 10.2464 -85.9738
rradius 46.0575
rwrist 6.72739
rhand -26.6438 -51.5395
rfingers 7.12502
rthumb -0.0760662 -81.5192
lclavicle 1.40454e-014 1.03368e-014
lhumerus -46.4312 -11.8992 83.129
lradius 54.0853
lwrist 0.36105
lhand -35.826 -42.3258
lfingers 7.12502
lthumb -8.94189 -12.5353
rfemur -37.0127 6.73881 13.9701
rtibia 50.0702
rfoot 0.375369 -5.93566
rtoes -12.9294
lfemur -30.4501 1.59483 -8.52956
ltibia 44.1676
lfoot 6.65884 3.39172
ltoes -14.7894
921
root -1.66861 19.1727 9.19524 13.2531 -10.1509 1.03856
lowerback -3.8267 -0.556357 1.90906
upperback -5.54854 -0.774292 0.38371
thorax -3.59191 -0.459544 -0.677322
lowerneck -11.0079 -3.51616 -7.17598
upperneck 24.6101 -3.99858 2.01339
head 9.80626 -2.3226 1.44209
rclavicle -9.56651e-015 9.54166e-015
rhumerus -52.152 9.77507 -85.8852
rradius 45.6147
rwrist 5.74202
rhand -27.5292 -51.1418
rfingers 7.12502
rthumb -0.931223 -81.1195
lclavicle -9.56651e-015 9.54166e-015
lhumerus -46.1141 -12.0711 83.2952
lradius 53.1354
lwrist -0.0718245
lhand -35.7634 -41.7989
lfingers 7.12502
lthumb -8.88152 -12.0058
rfemur -36.9529 6.66754 13.8693
rtibia 50.2329
rfoot -0.775552 -5.76418
rtoes -13.7333
lfemur -29.6255 1.2512 -8.53906
ltibia 42.5871
lfoot 6.50536 3.02912
ltoes -14.5451
922
root -1.61004 19.0851 9.21343 13.3199 -9.87448 0.72647
lowerback -4.25343 -0.694302 2.30006
upperback -5.45851 -0.973395 0.542606
thorax -3.2692 -0.567072 -0.740709
lowerneck -10.9712 -3.53737 -7.49023
upperneck 24.5603 -4.0012 2.15845
head 9.79332 -2.3367 1.54549
rclavicle -3.23367e-014 2.0276e-014
rhumerus -51.9091 9.23442 -85.7254
rradius 45.3205
rwrist 5.2293
rhand -27.2974 -51.3012
rfingers 7.12502
rthumb -0.707299 -81.2797
lclavicle -3.23367e-014 2.0276e-014
lhumerus -45.947 -12.1132 83.3971
lradius 52.2873
lwrist -0.304667
lhand -35.2077 -41.4368
lfingers 7.12502
lthumb -8.34526 -11.6217
rfemur -36.8318 6.43236 14.1281
rtibia 50.3529
rfoot -2.0427 -5.49224
rtoes -14.8605
lfemur -28.9475 0.802027 -8.21099
ltibia 41.3784
lfoot 6.41104 2.93829
ltoes -14.1768
923
root -1.55112 18.985 9.23343 13.6021 -9.50756 -0.151217
lowerback -4.88301 -0.754214 3.32471
upperback -5.35337 -1.09522 0.823171
thorax -2.83036 -0.652376 -1.03782
lowerneck -11.0615 -3.69244 -8.16687
upperneck 24.5248 -4.20299 2.69393
head 9.83902 -2.43222 1.82008
rclavicle 1.56978e-014 -1.90833e-014
rhumerus -51.6698 8.67829 -85.5429
rradius 44.9694
rwrist 5.28629
rhand -27.2246 -51.3561
rfingers 7.12502
rthumb -0.637017 -81.3349
lclavicle 1.56978e-014 -1.90833e-014
lhumerus -45.7087 -12.2461 83.5543
lradius 51.4292
lwrist -0.473681
lhand -34.7304 -41.4904
lfingers 7.12502
lthumb -7.88457 -11.6574
rfemur -36.7874 6.17175 15.0333
rtibia 50.387
rfoot -3.0739 -5.05119
rtoes -16.3838
lfemur -28.4749 0.550122 -7.25671
ltibia 40.4362
lfoot 6.42975 3.22793
ltoes -14.7293
